<svg width="98" height="10" viewBox="0 0 98 10" fill="none" xmlns="http://www.w3.org/2000/svg">
<path d="M9.708 4.86C9.604 5.548 9.376 6.172 9.024 6.732C8.672 7.292 8.252 7.744 7.764 8.088C7.284 8.424 6.768 8.684 6.216 8.868C5.672 9.044 5.124 9.132 4.572 9.132C4.036 9.132 3.52 9.036 3.024 8.844C2.528 8.652 2.084 8.38 1.692 8.028C1.308 7.676 1.024 7.216 0.84 6.648C0.656 6.072 0.62 5.436 0.732 4.74C0.82 4.188 0.988 3.676 1.236 3.204C1.484 2.724 1.78 2.32 2.124 1.992C2.468 1.664 2.848 1.384 3.264 1.152C3.688 0.92 4.12 0.748 4.56 0.636C5 0.524 5.436 0.468 5.868 0.468C6.404 0.468 6.92 0.564 7.416 0.756C7.912 0.947999 8.352 1.22 8.736 1.572C9.128 1.924 9.416 2.388 9.6 2.964C9.784 3.532 9.82 4.164 9.708 4.86ZM6.696 6.816C6.168 7.08 5.616 7.212 5.04 7.212C4.4 7.212 3.868 7.004 3.444 6.588C3.02 6.172 2.868 5.588 2.988 4.836C3.116 4.028 3.46 3.42 4.02 3.012C4.588 2.596 5.204 2.388 5.868 2.388C6.436 2.388 6.912 2.528 7.296 2.808L7.248 3.312C6.872 3.048 6.436 2.916 5.94 2.916C5.372 2.916 4.86 3.08 4.404 3.408C3.948 3.728 3.668 4.224 3.564 4.896C3.468 5.496 3.58 5.944 3.9 6.24C4.22 6.536 4.644 6.684 5.172 6.684C5.7 6.684 6.224 6.548 6.744 6.276L6.696 6.816ZM1.008 4.74C0.904 5.38 0.932 5.968 1.092 6.504C1.26 7.04 1.52 7.476 1.872 7.812C2.224 8.14 2.632 8.396 3.096 8.58C3.56 8.764 4.044 8.856 4.548 8.856C5.068 8.856 5.588 8.772 6.108 8.604C6.628 8.436 7.12 8.196 7.584 7.884C8.048 7.564 8.444 7.144 8.772 6.624C9.108 6.096 9.328 5.508 9.432 4.86C9.536 4.22 9.504 3.632 9.336 3.096C9.176 2.56 8.92 2.128 8.568 1.8C8.224 1.464 7.82 1.204 7.356 1.02C6.892 0.836 6.408 0.744 5.904 0.744C5.376 0.744 4.852 0.828 4.332 0.995999C3.812 1.164 3.32 1.408 2.856 1.728C2.392 2.04 1.992 2.46 1.656 2.988C1.328 3.508 1.112 4.092 1.008 4.74ZM14.8005 1.464C15.6245 0.96 16.5085 0.707999 17.4525 0.707999C18.2365 0.707999 18.8565 0.9 19.3125 1.284C19.7765 1.668 19.9565 2.188 19.8525 2.844C19.8045 3.172 19.7005 3.476 19.5405 3.756C19.3885 4.028 19.1725 4.28 18.8925 4.512C18.6205 4.744 18.3565 4.94 18.1005 5.1C17.8445 5.26 17.5125 5.452 17.1045 5.676C17.0565 5.7 16.9245 5.768 16.7085 5.88C16.5005 5.992 16.3685 6.064 16.3125 6.096C16.2565 6.12 16.1365 6.184 15.9525 6.288C15.7685 6.392 15.6445 6.468 15.5805 6.516C15.5165 6.564 15.4085 6.64 15.2565 6.744C15.1125 6.848 15.0085 6.936 14.9445 7.008C14.8885 7.072 14.8085 7.16 14.7045 7.272C14.6005 7.384 14.5245 7.492 14.4765 7.596C14.4285 7.692 14.3765 7.804 14.3205 7.932C14.2725 8.052 14.2365 8.18 14.2125 8.316H19.0725L18.9525 9H13.3365L13.3965 8.616C13.4605 8.232 13.5685 7.88 13.7205 7.56C13.8805 7.232 14.0485 6.964 14.2245 6.756C14.4085 6.54 14.6565 6.32 14.9685 6.096C15.2885 5.872 15.5565 5.704 15.7725 5.592C15.9885 5.472 16.2925 5.312 16.6845 5.112C16.9885 4.952 17.2205 4.828 17.3805 4.74C17.5485 4.652 17.7525 4.528 17.9925 4.368C18.2405 4.208 18.4285 4.06 18.5565 3.924C18.6925 3.78 18.8165 3.608 18.9285 3.408C19.0485 3.208 19.1245 2.996 19.1565 2.772C19.2205 2.332 19.0925 1.988 18.7725 1.74C18.4525 1.492 17.9805 1.368 17.3565 1.368C16.5005 1.368 15.6085 1.652 14.6805 2.22L14.8005 1.464ZM20.8888 4.86C21.0888 3.596 21.5448 2.588 22.2568 1.836C22.9768 1.084 23.9168 0.707999 25.0768 0.707999C26.2288 0.707999 27.0528 1.104 27.5488 1.896C28.0528 2.68 28.2048 3.708 28.0048 4.98C27.8048 6.236 27.3448 7.244 26.6248 8.004C25.9128 8.756 24.9728 9.132 23.8048 9.132C22.6528 9.132 21.8288 8.74 21.3328 7.956C20.8368 7.164 20.6888 6.132 20.8888 4.86ZM27.2848 4.932C27.4608 3.828 27.3608 2.96 26.9848 2.328C26.6168 1.696 25.9648 1.38 25.0288 1.38C24.0688 1.38 23.2968 1.688 22.7128 2.304C22.1368 2.92 21.7608 3.788 21.5848 4.908C21.4088 6.012 21.5048 6.88 21.8728 7.512C22.2488 8.144 22.9048 8.46 23.8408 8.46C24.8008 8.46 25.5688 8.152 26.1448 7.536C26.7288 6.92 27.1088 6.052 27.2848 4.932ZM30.0583 1.464C30.8823 0.96 31.7663 0.707999 32.7103 0.707999C33.4943 0.707999 34.1143 0.9 34.5703 1.284C35.0343 1.668 35.2143 2.188 35.1103 2.844C35.0623 3.172 34.9583 3.476 34.7983 3.756C34.6463 4.028 34.4303 4.28 34.1503 4.512C33.8783 4.744 33.6143 4.94 33.3583 5.1C33.1023 5.26 32.7703 5.452 32.3623 5.676C32.3143 5.7 32.1823 5.768 31.9663 5.88C31.7583 5.992 31.6263 6.064 31.5703 6.096C31.5143 6.12 31.3943 6.184 31.2103 6.288C31.0263 6.392 30.9023 6.468 30.8383 6.516C30.7743 6.564 30.6663 6.64 30.5143 6.744C30.3703 6.848 30.2663 6.936 30.2023 7.008C30.1463 7.072 30.0663 7.16 29.9623 7.272C29.8583 7.384 29.7823 7.492 29.7343 7.596C29.6863 7.692 29.6343 7.804 29.5783 7.932C29.5303 8.052 29.4943 8.18 29.4703 8.316H34.3303L34.2103 9H28.5943L28.6543 8.616C28.7183 8.232 28.8263 7.88 28.9783 7.56C29.1383 7.232 29.3063 6.964 29.4823 6.756C29.6663 6.54 29.9143 6.32 30.2263 6.096C30.5463 5.872 30.8143 5.704 31.0303 5.592C31.2463 5.472 31.5503 5.312 31.9423 5.112C32.2463 4.952 32.4783 4.828 32.6383 4.74C32.8063 4.652 33.0103 4.528 33.2503 4.368C33.4983 4.208 33.6863 4.06 33.8143 3.924C33.9503 3.78 34.0743 3.608 34.1863 3.408C34.3063 3.208 34.3823 2.996 34.4143 2.772C34.4783 2.332 34.3503 1.988 34.0303 1.74C33.7103 1.492 33.2383 1.368 32.6143 1.368C31.7583 1.368 30.8663 1.652 29.9383 2.22L30.0583 1.464ZM38.7746 0.84H39.2906L38.1026 8.316H39.6986L39.5906 9H35.4866L35.5946 8.316H37.3946L38.4506 1.608L36.5546 2.28L36.6746 1.596L38.7746 0.84ZM45.3006 0.24H45.9846L44.5926 9H43.9086L45.3006 0.24ZM60.9785 0.599999H61.7345L57.7865 9H56.9825L55.8185 1.92L52.3985 9H51.5585L50.2265 0.599999H50.9465L52.1225 8.088L55.7105 0.636H56.2985L57.5105 7.992L60.9785 0.599999ZM61.518 5.724H65.742L65.634 6.372H61.422L61.518 5.724ZM77.8769 0.599999H78.6329L74.6849 9H73.8809L72.7169 1.92L69.2969 9H68.4569L67.1249 0.599999H67.8449L69.0209 8.088L72.6089 0.636H73.1969L74.4089 7.992L77.8769 0.599999ZM83.0976 7.812C82.4016 8.692 81.5256 9.132 80.4696 9.132C79.6376 9.132 78.9896 8.844 78.5256 8.268C78.0616 7.684 77.9016 6.948 78.0456 6.06C78.1816 5.188 78.5616 4.48 79.1856 3.936C79.8176 3.384 80.5376 3.108 81.3456 3.108C81.8896 3.108 82.3536 3.236 82.7376 3.492C83.1296 3.74 83.4256 4.06 83.6256 4.452L83.8176 3.24H84.4296L83.5176 9H82.9056L83.0976 7.812ZM78.7056 6.108C78.5936 6.828 78.7176 7.408 79.0776 7.848C79.4376 8.288 79.9336 8.508 80.5656 8.508C81.1176 8.508 81.6256 8.356 82.0896 8.052C82.5616 7.74 82.9216 7.356 83.1696 6.9L83.4216 5.316C83.3256 4.868 83.0936 4.492 82.7256 4.188C82.3576 3.884 81.9136 3.732 81.3936 3.732C80.7376 3.732 80.1536 3.948 79.6416 4.38C79.1376 4.804 78.8256 5.38 78.7056 6.108ZM90.7915 3.24H91.5355L88.0075 9H87.2875L85.5955 3.24H86.3035L87.7435 8.232L90.7915 3.24ZM91.6039 6.096C91.7479 5.16 92.1359 4.428 92.7679 3.9C93.4079 3.372 94.1119 3.108 94.8799 3.108C95.3919 3.108 95.8279 3.212 96.1879 3.42C96.5559 3.62 96.8119 3.884 96.9559 4.212C97.1079 4.532 97.1959 4.892 97.2199 5.292C97.2519 5.684 97.1879 6.072 97.0279 6.456H92.2399C92.1759 7.136 92.3639 7.648 92.8039 7.992C93.2519 8.336 93.8039 8.508 94.4599 8.508C95.1879 8.508 95.8599 8.348 96.4759 8.028L96.3679 8.712C95.8079 8.992 95.1359 9.132 94.3519 9.132C93.9599 9.132 93.5879 9.072 93.2359 8.952C92.8839 8.824 92.5679 8.64 92.2879 8.4C92.0079 8.16 91.8039 7.84 91.6759 7.44C91.5479 7.04 91.5239 6.592 91.6039 6.096ZM96.5239 5.856C96.5559 5.68 96.5759 5.5 96.5839 5.316C96.5999 5.124 96.5719 4.936 96.4999 4.752C96.4279 4.56 96.3319 4.388 96.2119 4.236C96.0919 4.084 95.9159 3.964 95.6839 3.876C95.4519 3.78 95.1839 3.732 94.8799 3.732C94.2799 3.732 93.7359 3.924 93.2479 4.308C92.7679 4.684 92.4599 5.2 92.3239 5.856H96.5239Z" fill="#A1A6B4"/>
</svg>
