<svg width="2213" height="12" viewBox="0 0 2213 12" fill="none" xmlns="http://www.w3.org/2000/svg">
<path opacity="0.6" d="M1 1C9.24396 1 9.24396 11 17.4879 11C25.7319 11 25.7319 1 33.9758 1C42.2198 1 42.2198 11 50.4445 11C58.6887 11 58.6887 1 66.9131 1C75.1572 1 75.1572 11 83.3816 11C91.6257 11 91.6257 1 99.8693 1C108.113 1 108.113 11 116.358 11C124.601 11 124.601 1 132.845 1C141.089 1 141.089 11 149.334 11C157.577 11 157.577 1 165.821 1C174.065 1 174.065 11 182.309 11C190.553 11 190.553 1 198.797 1C207.041 1 207.041 11 215.266 11C223.51 11 223.51 1 231.734 1C239.978 1 239.978 11 248.203 11C256.447 11 256.447 1 264.69 1C272.935 1 272.935 11 281.179 11C289.422 11 289.422 1 297.666 1C305.911 1 305.911 11 314.155 11C322.398 11 322.398 1 330.642 1C338.886 1 338.886 11 347.13 11C355.374 11 355.374 1 363.618 1C371.862 1 371.862 11 380.087 11C388.331 11 388.331 1 396.556 1C404.8 1 404.8 11 413.024 11C421.268 11 421.268 1 429.512 1M430 1C438.244 1 438.244 11 446.488 11C454.732 11 454.732 1 462.976 1C471.22 1 471.22 11 479.444 11C487.689 11 487.689 1 495.913 1C504.157 1 504.157 11 512.382 11C520.626 11 520.626 1 528.869 1C537.113 1 537.113 11 545.358 11C553.601 11 553.601 1 561.845 1C570.089 1 570.089 11 578.333 11C586.577 11 586.577 1 594.821 1C603.065 1 603.065 11 611.309 11C619.553 11 619.553 1 627.797 1C636.041 1 636.041 11 644.266 11C652.51 11 652.51 1 660.734 1C668.978 1 668.978 11 677.203 11C685.447 11 685.447 1 693.69 1C701.935 1 701.935 11 710.179 11C718.422 11 718.422 1 726.666 1C734.911 1 734.911 11 743.155 11C751.398 11 751.398 1 759.642 1C767.886 1 767.886 11 776.13 11C784.374 11 784.374 1 792.618 1C800.862 1 800.862 11 809.087 11C817.331 11 817.331 1 825.555 1C833.8 1 833.8 11 842.024 11C850.268 11 850.268 1 858.512 1C866.756 1 866.756 11 875 11C883.244 11 883.244 1 891.488 1C899.732 1 899.732 11 907.976 11C916.22 11 916.22 1 924.444 1C932.689 1 932.689 11 940.913 11C949.157 11 949.157 1 957.382 1C965.626 1 965.626 11 973.869 11C982.113 11 982.113 1 990.358 1C998.601 1 998.601 11 1006.85 11C1015.09 11 1015.09 1 1023.33 1C1031.58 1 1031.58 11 1039.82 11C1048.07 11 1048.07 1 1056.31 1C1064.55 1 1064.55 11 1072.8 11C1081.04 11 1081.04 1 1089.27 1C1097.51 1 1097.51 11 1105.73 11C1113.98 11 1113.98 1 1122.2 1C1130.45 1 1130.45 11 1138.69 11C1146.93 11 1146.93 1 1155.18 1C1163.42 1 1163.42 11 1171.67 11C1179.91 11 1179.91 1 1188.15 1C1196.4 1 1196.4 11 1204.64 11C1212.89 11 1212.89 1 1221.13 1C1229.37 1 1229.37 11 1237.62 11C1245.86 11 1245.86 1 1254.09 1C1262.33 1 1262.33 11 1270.56 11C1278.8 11 1278.8 1 1287.02 1C1295.27 1 1295.27 11 1303.51 11C1311.76 11 1311.76 1 1320 1M1321 1C1329.24 1 1329.24 11 1337.49 11C1345.73 11 1345.73 1 1353.98 1C1362.22 1 1362.22 11 1370.44 11C1378.69 11 1378.69 1 1386.91 1C1395.16 1 1395.16 11 1403.38 11C1411.63 11 1411.63 1 1419.87 1C1428.11 1 1428.11 11 1436.36 11C1444.6 11 1444.6 1 1452.85 1C1461.09 1 1461.09 11 1469.33 11C1477.58 11 1477.58 1 1485.82 1C1494.07 1 1494.07 11 1502.31 11C1510.55 11 1510.55 1 1518.8 1C1527.04 1 1527.04 11 1535.27 11C1543.51 11 1543.51 1 1551.73 1C1559.98 1 1559.98 11 1568.2 11C1576.45 11 1576.45 1 1584.69 1C1592.93 1 1592.93 11 1601.18 11C1609.42 11 1609.42 1 1617.67 1C1625.91 1 1625.91 11 1634.15 11C1642.4 11 1642.4 1 1650.64 1C1658.89 1 1658.89 11 1667.13 11C1675.37 11 1675.37 1 1683.62 1C1691.86 1 1691.86 11 1700.09 11C1708.33 11 1708.33 1 1716.56 1C1724.8 1 1724.8 11 1733.02 11C1741.27 11 1741.27 1 1749.51 1C1757.76 1 1757.76 11 1766 11M1767 11C1775.24 11 1775.24 1 1783.49 1C1791.73 1 1791.73 11 1799.98 11C1808.22 11 1808.22 1 1816.44 1C1824.69 1 1824.69 11 1832.91 11C1841.16 11 1841.16 1 1849.38 1C1857.63 1 1857.63 11 1865.87 11C1874.11 11 1874.11 1 1882.36 1C1890.6 1 1890.6 11 1898.85 11C1907.09 11 1907.09 1 1915.33 1C1923.58 1 1923.58 11 1931.82 11C1940.07 11 1940.07 1 1948.31 1C1956.55 1 1956.55 11 1964.8 11C1973.04 11 1973.04 1 1981.27 1C1989.51 1 1989.51 11 1997.73 11C2005.98 11 2005.98 1 2014.2 1C2022.45 1 2022.45 11 2030.69 11C2038.93 11 2038.93 1 2047.18 1C2055.42 1 2055.42 11 2063.67 11C2071.91 11 2071.91 1 2080.15 1C2088.4 1 2088.4 11 2096.64 11C2104.89 11 2104.89 1 2113.13 1C2121.37 1 2121.37 11 2129.62 11C2137.86 11 2137.86 1 2146.09 1C2154.33 1 2154.33 11 2162.56 11C2170.8 11 2170.8 1 2179.02 1C2187.27 1 2187.27 11 2195.51 11C2203.76 11 2203.76 1 2212 1" stroke="#F5F6F7" stroke-miterlimit="10" stroke-linecap="square"/>
</svg>
